<?xml version="1.0" encoding="utf-8"?>
<!-- Generator: Adobe Illustrator 17.1.0, SVG Export Plug-In . SVG Version: 6.00 Build 0)  -->
<!DOCTYPE svg PUBLIC "-//W3C//DTD SVG 1.1//EN" "http://www.w3.org/Graphics/SVG/1.1/DTD/svg11.dtd">
<svg version="1.1" id="Layer_1" xmlns="http://www.w3.org/2000/svg" xmlns:xlink="http://www.w3.org/1999/xlink" x="0px" y="0px"
	 viewBox="0 0 24 40" enable-background="new 0 0 24 40" xml:space="preserve">
<path fill="#FFFFFF" d="M0.879,17.849l16.97-16.97c1.172-1.172,3.071-1.172,4.243,0c1.171,1.172,1.171,3.071,0,4.243L5.121,22.092
	c-1.172,1.172-3.071,1.172-4.243,0C-0.293,20.92-0.293,19.021,0.879,17.849z"/>
<path fill="#FFFFFF" d="M0.879,22.121l16.97,16.97c1.172,1.172,3.071,1.172,4.243,0c1.171-1.172,1.171-3.071,0-4.243L5.121,17.879
	c-1.172-1.172-3.071-1.172-4.243,0C-0.293,19.05-0.293,20.95,0.879,22.121z"/>
</svg>
