<?xml version="1.0" encoding="utf-8"?>
<!-- Generator: Adobe Illustrator 17.1.0, SVG Export Plug-In . SVG Version: 6.00 Build 0)  -->
<!DOCTYPE svg PUBLIC "-//W3C//DTD SVG 1.1//EN" "http://www.w3.org/Graphics/SVG/1.1/DTD/svg11.dtd">
<svg version="1.1" id="Layer_1" xmlns="http://www.w3.org/2000/svg" xmlns:xlink="http://www.w3.org/1999/xlink" x="0px" y="0px"
	 viewBox="0 0 328.922 28.013" enable-background="new 0 0 328.922 28.013" xml:space="preserve">
<path fill-rule="evenodd" clip-rule="evenodd" fill="#FFFFFF" d="M323.882,8.461v15.285h-3.935V8.461h-5.04V5.186h14.016v3.275
	H323.882z M309.941,23.747l-4.431-7.122h-2.095v7.122h-3.935V5.186h5.408c2.522,0,4.388,0.459,5.599,1.378
	c1.21,0.918,1.815,2.313,1.815,4.183c0,1.092-0.301,2.063-0.901,2.913c-0.601,0.851-1.452,1.517-2.552,1.999
	c2.793,4.173,4.613,6.868,5.459,8.087H309.941z M307.421,8.969c-0.605-0.372-1.542-0.559-2.812-0.559h-1.193v5.015h1.27
	c1.244,0,2.162-0.207,2.755-0.622c0.592-0.415,0.889-1.066,0.889-1.955C308.329,9.968,308.026,9.342,307.421,8.969z M291.48,19.329
	h-6.767l-1.346,4.418h-4.24l6.551-18.637h4.811l6.576,18.637h-4.24L291.48,19.329z M288.44,9.236
	c-0.157-0.525-0.269-0.939-0.336-1.244c-0.279,1.083-1.079,3.762-2.399,8.036h4.837C289.297,12.025,288.596,9.761,288.44,9.236z
	 M273.489,23.747h-3.936V8.461h-5.04V5.186h14.016v3.275h-5.04V23.747z M255.86,11.73c0.351,0.241,1.183,0.675,2.495,1.301
	c1.735,0.83,2.924,1.661,3.567,2.495c0.643,0.834,0.965,1.856,0.965,3.066c0,1.676-0.603,2.996-1.809,3.961
	c-1.206,0.965-2.884,1.447-5.034,1.447c-1.98,0-3.732-0.372-5.256-1.117v-3.656c1.253,0.559,2.313,0.952,3.18,1.181
	c0.867,0.229,1.661,0.343,2.38,0.343c0.863,0,1.526-0.165,1.987-0.495c0.461-0.33,0.692-0.821,0.692-1.473
	c0-0.364-0.102-0.688-0.305-0.971c-0.203-0.284-0.501-0.556-0.895-0.819c-0.393-0.262-1.195-0.681-2.406-1.257
	c-1.134-0.533-1.985-1.045-2.552-1.536c-0.567-0.491-1.02-1.062-1.358-1.714c-0.339-0.652-0.508-1.413-0.508-2.285
	c0-1.642,0.556-2.933,1.669-3.872c1.113-0.939,2.651-1.409,4.615-1.409c0.965,0,1.885,0.114,2.761,0.343
	c0.876,0.228,1.792,0.55,2.749,0.965l-1.27,3.06c-0.99-0.406-1.809-0.69-2.456-0.851c-0.647-0.161-1.284-0.241-1.911-0.241
	c-0.745,0-1.316,0.174-1.714,0.521c-0.398,0.347-0.597,0.8-0.597,1.358c0,0.347,0.08,0.65,0.241,0.908
	C255.253,11.24,255.509,11.489,255.86,11.73z M232.338,24c-2.844,0-5.027-0.825-6.551-2.476c-1.523-1.65-2.285-4.02-2.285-7.109
	c0-3.089,0.764-5.448,2.292-7.078c1.528-1.629,3.718-2.444,6.57-2.444c2.852,0,5.034,0.821,6.544,2.463
	c1.511,1.642,2.266,4.003,2.266,7.084c0,3.072-0.762,5.434-2.285,7.084C237.366,23.175,235.182,24,232.338,24z M232.364,8.169
	c-1.566,0-2.747,0.527-3.542,1.581c-0.796,1.054-1.193,2.617-1.193,4.691c0,2.074,0.393,3.635,1.181,4.685
	c0.787,1.049,1.964,1.574,3.529,1.574c3.14,0,4.71-2.086,4.71-6.259C237.048,10.26,235.487,8.169,232.364,8.169z M216.353,23.747
	h-3.936V8.461h-5.04V5.186h14.016v3.275h-5.04V23.747z M187.721,5.186h10.689v3.225h-6.754v4.075h6.284v3.225h-6.284v4.786h6.754
	v3.25h-10.689V5.186z M180.94,23.747l-4.431-7.122h-2.095v7.122h-3.936V5.186h5.408c2.522,0,4.388,0.459,5.599,1.378
	c1.21,0.918,1.815,2.313,1.815,4.183c0,1.092-0.3,2.063-0.901,2.913c-0.601,0.851-1.452,1.517-2.552,1.999
	c2.793,4.173,4.613,6.868,5.459,8.087H180.94z M178.42,8.969c-0.605-0.372-1.542-0.559-2.812-0.559h-1.193v5.015h1.27
	c1.244,0,2.162-0.207,2.755-0.622c0.592-0.415,0.889-1.066,0.889-1.955C179.328,9.968,179.025,9.342,178.42,8.969z M155.84,5.186
	h10.689v3.225h-6.754v4.075h6.284v3.225h-6.284v4.786h6.754v3.25H155.84V5.186z M147.154,15.736h-7.351v8.011h-3.936V5.186h3.936
	v7.274h7.351V5.186h3.923v18.561h-3.923V15.736z M122.154,23.747l-4.862-7.82l-1.663,1.193v6.627h-3.936V5.186h3.936v8.493
	l1.549-2.184l5.027-6.31h4.367l-6.475,8.214l6.525,10.347H122.154z M105,8.563c-0.703-0.245-1.392-0.368-2.069-0.368
	c-1.481,0-2.628,0.557-3.44,1.669c-0.813,1.113-1.219,2.664-1.219,4.653c0,4.139,1.553,6.208,4.659,6.208
	c1.303,0,2.882-0.326,4.735-0.978v3.301c-1.523,0.635-3.225,0.952-5.104,0.952c-2.7,0-4.765-0.819-6.195-2.457
	c-1.43-1.638-2.146-3.988-2.146-7.052c0-1.93,0.351-3.62,1.054-5.072c0.702-1.451,1.712-2.564,3.028-3.339
	c1.316-0.774,2.859-1.162,4.628-1.162c1.803,0,3.614,0.436,5.434,1.308l-1.27,3.199C106.401,9.096,105.703,8.808,105,8.563z
	 M86.362,5.186h3.936v18.561h-3.936V5.186z M71.595,5.186h3.936v15.311h7.528v3.25H71.595V5.186z M64.903,8.563
	c-0.703-0.245-1.392-0.368-2.069-0.368c-1.481,0-2.628,0.557-3.44,1.669c-0.813,1.113-1.219,2.664-1.219,4.653
	c0,4.139,1.553,6.208,4.659,6.208c1.303,0,2.882-0.326,4.735-0.978v3.301C66.046,23.683,64.345,24,62.466,24
	c-2.7,0-4.765-0.819-6.195-2.457c-1.43-1.638-2.146-3.988-2.146-7.052c0-1.93,0.351-3.62,1.054-5.072
	c0.702-1.451,1.712-2.564,3.028-3.339c1.316-0.774,2.858-1.162,4.627-1.162c1.803,0,3.614,0.436,5.434,1.308l-1.27,3.199
	C66.304,9.096,65.606,8.808,64.903,8.563z M4.036,27.566c-0.453,0.292-1.057,0.447-1.673,0.447c-0.304,0-0.611-0.036-0.904-0.116
	C0.576,27.66,0,26.541,0,25.922V2.092c0-0.619,0.576-1.739,1.459-1.975c0.884-0.238,1.9-0.107,2.577,0.332L22.7,11.804
	c0.44,0.285,1.292,1.8,1.292,2.203c0,0.403-0.852,1.918-1.292,2.204L4.036,27.566z"/>
</svg>
