<?xml version="1.0" encoding="utf-8"?>
<!-- Generator: Adobe Illustrator 17.1.0, SVG Export Plug-In . SVG Version: 6.00 Build 0)  -->
<!DOCTYPE svg PUBLIC "-//W3C//DTD SVG 1.1//EN" "http://www.w3.org/Graphics/SVG/1.1/DTD/svg11.dtd">
<svg version="1.1" id="Layer_1" xmlns="http://www.w3.org/2000/svg" xmlns:xlink="http://www.w3.org/1999/xlink" x="0px" y="0px"
	 viewBox="0 0 107.011 39.97" enable-background="new 0 0 107.011 39.97" xml:space="preserve">
<path fill="#FFFFFF" d="M43.365,31.486h4.128v-7.839h4.64c4.256,0,7.231-3.072,7.231-7.487s-2.976-7.391-7.231-7.391h-8.767V31.486z
	 M47.493,20.063v-7.743h3.936c2.336,0,3.744,1.504,3.744,3.84c0,2.368-1.408,3.904-3.808,3.904H47.493z"/>
<path fill="#FFFFFF" d="M62.373,31.486h4.064v-6.464c0-0.96,0.096-1.856,0.352-2.656c0.768-2.432,2.72-3.424,4.448-3.424
	c0.544,0,0.96,0.064,0.96,0.064v-4c0,0-0.352-0.064-0.736-0.064c-2.496,0-4.448,1.856-5.184,4.192h-0.064
	c0,0,0.064-0.544,0.064-1.152v-2.816h-3.904V31.486z"/>
<path fill="#FFFFFF" d="M73.797,23.327c0,4.64,3.36,8.543,8.767,8.543c4.064,0,6.56-2.336,6.56-2.336l-1.568-2.912
	c0,0-2.08,1.792-4.704,1.792c-2.432,0-4.64-1.472-4.896-4.32H89.22c0,0,0.096-1.088,0.096-1.568c0-4.32-2.528-7.743-7.231-7.743
	C77.221,14.783,73.797,18.303,73.797,23.327z M78.085,21.311c0.384-2.112,1.824-3.392,3.904-3.392c1.792,0,3.168,1.184,3.232,3.392
	H78.085z"/>
<path fill="#FFFFFF" d="M96.356,31.486h4.8l5.856-16.319h-4.288l-3.392,10.111c-0.32,0.96-0.544,2.464-0.576,2.464h-0.064
	c-0.032,0-0.256-1.504-0.576-2.464l-3.392-10.111h-4.288L96.356,31.486z"/>
<path fill="#FFFFFF" d="M0.879,17.849l16.97-16.97c1.172-1.172,3.071-1.172,4.243,0c1.171,1.172,1.171,3.071,0,4.243L5.121,22.092
	c-1.172,1.172-3.071,1.172-4.243,0C-0.293,20.92-0.293,19.021,0.879,17.849z"/>
<path fill="#FFFFFF" d="M0.879,22.121l16.97,16.97c1.172,1.172,3.071,1.172,4.243,0c1.171-1.172,1.171-3.071,0-4.243L5.121,17.879
	c-1.172-1.172-3.071-1.172-4.243,0C-0.293,19.05-0.293,20.95,0.879,22.121z"/>
</svg>
