<?xml version="1.0" encoding="utf-8"?>
<!-- Generator: Adobe Illustrator 17.1.0, SVG Export Plug-In . SVG Version: 6.00 Build 0)  -->
<!DOCTYPE svg PUBLIC "-//W3C//DTD SVG 1.1//EN" "http://www.w3.org/Graphics/SVG/1.1/DTD/svg11.dtd">
<svg version="1.1" id="Layer_1" xmlns="http://www.w3.org/2000/svg" xmlns:xlink="http://www.w3.org/1999/xlink" x="0px" y="0px"
	 viewBox="0 0 60 44" enable-background="new 0 0 60 44" xml:space="preserve">
<path fill-rule="evenodd" clip-rule="evenodd" fill="#FFFFFF" d="M2,0h6c1.104,0,2,0.896,2,2v4c0,1.105-0.896,2-2,2H2
	C0.895,8,0,7.105,0,6V2C0,0.896,0.895,0,2,0z"/>
<path fill-rule="evenodd" clip-rule="evenodd" fill="#FFFFFF" d="M20,0h38c1.104,0,2,0.896,2,2v4c0,1.105-0.896,2-2,2H20
	c-1.105,0-2-0.895-2-2V2C18,0.896,18.895,0,20,0z"/>
<path fill-rule="evenodd" clip-rule="evenodd" fill="#FFFFFF" d="M2,18h6c1.104,0,2,0.896,2,2v4c0,1.105-0.896,2-2,2H2
	c-1.104,0-2-0.896-2-2v-4C0,18.895,0.895,18,2,18z"/>
<path fill-rule="evenodd" clip-rule="evenodd" fill="#FFFFFF" d="M20,18h38c1.104,0,2,0.896,2,2v4c0,1.105-0.896,2-2,2H20
	c-1.105,0-2-0.895-2-2v-4C18,18.895,18.895,18,20,18z"/>
<path fill-rule="evenodd" clip-rule="evenodd" fill="#FFFFFF" d="M2,36h6c1.104,0,2,0.896,2,2v4c0,1.105-0.896,2-2,2H2
	c-1.104,0-2-0.895-2-2v-4C0,36.896,0.895,36,2,36z"/>
<path fill-rule="evenodd" clip-rule="evenodd" fill="#FFFFFF" d="M20,36h38c1.104,0,2,0.896,2,2v4c0,1.105-0.896,2-2,2H20
	c-1.105,0-2-0.895-2-2v-4C18,36.896,18.895,36,20,36z"/>
</svg>
