<?xml version="1.0" encoding="utf-8"?>
<!-- Generator: Adobe Illustrator 17.1.0, SVG Export Plug-In . SVG Version: 6.00 Build 0)  -->
<!DOCTYPE svg PUBLIC "-//W3C//DTD SVG 1.1//EN" "http://www.w3.org/Graphics/SVG/1.1/DTD/svg11.dtd">
<svg version="1.1" id="Layer_1" xmlns="http://www.w3.org/2000/svg" xmlns:xlink="http://www.w3.org/1999/xlink" x="0px" y="0px"
	 viewBox="0 0 600 600" enable-background="new 0 0 600 600" xml:space="preserve">
<rect display="none" fill="#ABABAB" width="600" height="600"/>
<path fill="#FFFFFF" d="M0.88,16.897L16.734,0.978c1.161-1.165,3.078-1.346,4.288-0.233c1.27,1.168,1.303,3.149,0.098,4.359
	L5.266,21.022c-1.161,1.165-3.078,1.346-4.289,0.233C-0.292,20.088-0.325,18.107,0.88,16.897z"/>
<path fill="#FFFFFF" d="M0.883,21.158l15.904,15.867c1.164,1.161,3.087,1.342,4.302,0.233c1.274-1.164,1.307-3.139-0.513-4.955
	L4.653,16.417c-0.443-0.442-2.136-0.714-3.356,0.143C-0.281,17.669-0.419,19.86,0.883,21.158z"/>
<path fill="#FFFFFF" d="M22.021,122.257c-1.212,1.111-3.131,0.93-4.293-0.233L0.977,105.258c-1.053-1.054-1.325-2.744-0.468-3.962
	c1.109-1.576,3.301-1.714,4.6-0.414l17.01,17.025C23.325,119.114,23.293,121.091,22.021,122.257z"/>
<path fill="#FFFFFF" d="M22.02,117.743c-1.213-1.111-3.134-0.93-4.297,0.233L0.976,134.723c-1.163,1.163-1.344,3.084-0.233,4.297
	c1.165,1.273,3.143,1.306,4.351,0.098l17.025-17.025C23.326,120.886,23.293,118.909,22.02,117.743z"/>
<g>
	<path fill-rule="evenodd" clip-rule="evenodd" fill="#FFFFFF" d="M2,200h6c1.104,0,2,0.895,2,2v4c0,1.105-0.896,2-2,2H2
		c-1.104,0-2-0.895-2-2v-4C0,200.895,0.895,200,2,200z"/>
	<path fill-rule="evenodd" clip-rule="evenodd" fill="#FFFFFF" d="M20,200h38c1.104,0,2,0.895,2,2v4c0,1.105-0.896,2-2,2H20
		c-1.105,0-2-0.895-2-2v-4C18,200.895,18.895,200,20,200z"/>
	<path fill-rule="evenodd" clip-rule="evenodd" fill="#FFFFFF" d="M2,218h6c1.104,0,2,0.896,2,2v4c0,1.105-0.896,2-2,2H2
		c-1.104,0-2-0.896-2-2v-4C0,218.895,0.895,218,2,218z"/>
	<path fill-rule="evenodd" clip-rule="evenodd" fill="#FFFFFF" d="M20,218h38c1.104,0,2,0.896,2,2v4c0,1.105-0.896,2-2,2H20
		c-1.105,0-2-0.895-2-2v-4C18,218.895,18.895,218,20,218z"/>
	<path fill-rule="evenodd" clip-rule="evenodd" fill="#FFFFFF" d="M2,236h6c1.104,0,2,0.895,2,2v4c0,1.105-0.896,2-2,2H2
		c-1.104,0-2-0.895-2-2v-4C0,236.895,0.895,236,2,236z"/>
	<path fill-rule="evenodd" clip-rule="evenodd" fill="#FFFFFF" d="M20,236h38c1.104,0,2,0.895,2,2v4c0,1.105-0.896,2-2,2H20
		c-1.105,0-2-0.895-2-2v-4C18,236.895,18.895,236,20,236z"/>
</g>
<path fill="#FFFFFF" d="M0.88,305.101l19.854,19.921c1.161,1.165,3.078,1.345,4.288,0.233c1.27-1.167,1.303-3.148,0.098-4.357
	L5.266,300.977c-1.161-1.165-3.078-1.345-4.288-0.233C-0.292,301.911-0.325,303.892,0.88,305.101z"/>
<path fill="#FFFFFF" d="M25.02,300.743c-1.213-1.11-3.133-0.93-4.296,0.233L0.976,320.725c-1.163,1.163-1.343,3.083-0.233,4.296
	c1.165,1.273,3.143,1.305,4.35,0.098l20.026-20.026C26.326,303.885,26.293,301.908,25.02,300.743z"/>
<circle fill="#FFFFFF" cx="6" cy="406" r="6"/>
<circle cx="86" cy="406" r="6"/>
<circle cx="116" cy="406" r="6"/>
<circle cx="146" cy="406" r="6"/>
<path fill-rule="evenodd" clip-rule="evenodd" fill="#FFFFFF" d="M150,0h4v4h-4V0z"/>
<path fill-rule="evenodd" clip-rule="evenodd" fill="#FFFFFF" d="M158,0h20v4h-20V0z"/>
<path fill-rule="evenodd" clip-rule="evenodd" fill="#FFFFFF" d="M150,8h4v4h-4V8z"/>
<path fill-rule="evenodd" clip-rule="evenodd" fill="#FFFFFF" d="M158,8h20v4h-20V8z"/>
<path fill-rule="evenodd" clip-rule="evenodd" fill="#FFFFFF" d="M150,16h4v4h-4V16z"/>
<path fill-rule="evenodd" clip-rule="evenodd" fill="#FFFFFF" d="M158,16h20v4h-20V16z"/>
</svg>
